<svg xmlns="http://www.w3.org/2000/svg" viewBox="0 0 1200 750" width="1200" height="750">
<defs>
  <linearGradient id="g" x1="0" y1="0" x2="1" y2="1">
    <stop offset="0" stop-color="#16306b"/><stop offset="0.55" stop-color="#1E4FA3"/><stop offset="1" stop-color="#214f9e"/>
  </linearGradient>
  <linearGradient id="gr" x1="0" y1="0" x2="1" y2="1">
    <stop offset="0" stop-color="#b81f19"/><stop offset="1" stop-color="#E8312A"/>
  </linearGradient>
  <pattern id="grid" width="42" height="42" patternUnits="userSpaceOnUse">
    <path d="M42 0H0V42" fill="none" stroke="#ffffff" stroke-opacity="0.07" stroke-width="1"/>
  </pattern>
</defs>
<rect width="1200" height="750" fill="url(#g)"/>
<rect width="1200" height="750" fill="url(#grid)"/>
<circle cx="1040" cy="150" r="220" fill="#F7C600" opacity="0.16"/>
<g fill="#ffffff" opacity="0.92"><rect x="120" y="470" width="90" height="230" rx="4"/><rect x="230" y="380" width="110" height="320" rx="4"/><rect x="360" y="300" width="80" height="400" rx="4"/><rect x="460" y="440" width="120" height="260" rx="4"/><rect x="600" y="350" width="90" height="350" rx="4"/><rect x="710" y="420" width="130" height="280" rx="4"/><rect x="860" y="320" width="95" height="380" rx="4"/><rect x="975" y="460" width="110" height="240" rx="4"/></g>
<g transform="translate(70,70)">
  <circle cx="34" cy="34" r="34" fill="#ffffff"/>
  <text x="34" y="46" font-family="Arial, sans-serif" font-size="30" font-weight="800" fill="#1E4FA3" text-anchor="middle">PL</text>
  <text x="86" y="28" font-family="Arial, sans-serif" font-size="20" font-weight="800" fill="#ffffff">PCCC PHƯỚC LONG</text>
  <text x="86" y="54" font-family="Arial, sans-serif" font-size="15" fill="#F7C600">Hệ thống phòng cháy chữa cháy</text>
</g>
</svg>
